<?xml version="1.0" encoding="utf-8"?>
<!-- Generator: Adobe Illustrator 16.0.0, SVG Export Plug-In . SVG Version: 6.00 Build 0)  -->
<!DOCTYPE svg PUBLIC "-//W3C//DTD SVG 1.1//EN" "http://www.w3.org/Graphics/SVG/1.1/DTD/svg11.dtd">
<svg version="1.1" id="Layer_1" xmlns="http://www.w3.org/2000/svg" xmlns:xlink="http://www.w3.org/1999/xlink" x="0px" y="0px"
	 width="205px" height="411px" viewBox="0 0 205 411" enable-background="new 0 0 205 411" xml:space="preserve">
<path fill="#FFCE22" d="M79.412,127.483c23.619,9.715,52.213,19.482,76.223,5.728c24.458-14.016,29.299-44.457,27.62-70.311
	c-0.873-13.453-4.51-26.993-11.496-38.686c-3.014-5.046-8.868-7.907-14.569-5.303c-4.951,2.264-8.252,9.275-5.224,14.354
	c2.448,4.1,5.007,9.503,6.235,13.286c0.382,1.158,1.244,4.456,1.674,6.424c0.527,2.437,0.949,4.898,1.266,7.375
	c0.641,4.976,0.762,8.256,0.537,13.927c-0.209,5.306-0.793,10.602-1.756,15.823c-0.07,0.39-0.104,0.584-0.111,0.653
	c-0.101,0.45-0.221,0.903-0.332,1.358c-0.354,1.395-0.744,2.786-1.188,4.157c-0.676,2.106-1.947,5.35-2.577,6.634
	c-1.973,4.033-4.845,7.144-8.621,10.088c-0.404,0.321-0.551,0.449-0.587,0.498c-0.073,0.028-0.266,0.111-0.679,0.33
	c-1.115,0.586-2.225,1.156-3.379,1.655c-0.996,0.431-2.004,0.822-3.023,1.172c-0.011,0.005-0.019,0.002-0.021,0.01
	c-0.842,0.234-1.703,0.444-2.555,0.63c-2.146,0.472-4.33,0.795-6.527,0.987c-0.131,0.015-0.949,0.06-1.393,0.088
	c-0.324-0.001-0.742,0.009-0.742,0.009c-1.289-0.027-2.574-0.035-3.861-0.116c-12.924-0.809-25.192-6.013-37.518-11.086
	c-5.309-2.184-12.296,0.988-13.996,6.401C70.988,119.369,73.719,125.141,79.412,127.483z"/>
<path fill="#FFCE22" d="M116.709,267.807c-6.759,5.762-11.201,13.7-11.975,22.652c-0.697,8.038,0.861,15.76,2.359,23.588
	c0.702,3.662,1.356,7.348,1.654,11.078c0.074,0.941,0.13,1.893,0.15,2.837c0.009,0.333-0.01,1.752,0.004,1.729
	c-0.096,1.746-0.33,3.496-0.723,5.195c-0.09,0.397-0.199,0.785-0.297,1.18c-0.016,0.062-0.027,0.121-0.043,0.173
	c-0.018,0.028-0.033,0.062-0.057,0.104c-0.36,0.698-0.581,1.519-0.911,2.237c-0.375,0.826-0.784,1.636-1.229,2.421
	c-0.099,0.176-0.207,0.351-0.313,0.522c-0.01-0.013-0.596,0.879-0.674,0.985c-0.948,1.31-2,2.544-3.127,3.699
	c0.025-0.026-0.517,0.496-0.754,0.733c-0.161,0.144-0.339,0.298-0.394,0.346c-0.773,0.652-1.576,1.27-2.403,1.85
	c-0.742,0.523-1.507,1.014-2.288,1.478c-0.286,0.166-0.573,0.327-0.866,0.489c-0.077,0.033-0.164,0.07-0.274,0.121
	c-1.669,0.737-3.328,1.336-5.056,1.897c-0.11,0.034-0.194,0.065-0.27,0.087c-0.419,0.09-0.837,0.17-1.258,0.239
	c-0.884,0.147-1.771,0.258-2.665,0.319c-0.734,0.055-1.471,0.07-2.208,0.069c-0.07-0.008-0.145-0.014-0.233-0.026
	c-0.598-0.063-1.194-0.121-1.789-0.207c-6.763-0.985-13.142-3.858-20.001-4.282c-4.821-0.296-9.448,0.43-13.645,3.028
	c-5.127,3.172-7.926,8.566-9.455,14.245c-1.414,5.273-1.532,10.888-1.98,16.296c-0.493,5.902-0.986,11.805-1.479,17.706
	c-0.304,3.658,1.672,7.17,5.466,7.808c3.335,0.557,7.451-1.928,7.759-5.604c0.817-9.769,1.2-19.7,2.561-29.415
	c0.144-1.033,0.317-2.06,0.537-3.081c0.093-0.421,0.188-0.848,0.305-1.266c0.05-0.153,0.189-0.629,0.207-0.675
	c0.311-0.819,0.655-1.651,1.085-2.418c0.072-0.094,0.357-0.522,0.414-0.582c0.008-0.008,1.038-1.062,0.926-1.016
	c0.417-0.297,1.354-0.852,1.119-0.776c0.494-0.208,1-0.382,1.508-0.566c0.296-0.046,0.59-0.097,0.891-0.128
	c0.354-0.039,0.708-0.066,1.057-0.088c0.176-0.008,1.042,0.023,1.07,0.009c6.328,0.588,12.271,3.017,18.511,4.085
	c7.391,1.266,15.221,0.075,21.967-3.311c7.197-3.605,13.049-8.913,17.272-15.842c4.104-6.734,5.442-14.563,5.055-22.348
	c-0.362-7.271-2.229-14.332-3.396-21.484c-0.554-3.375-0.901-6.756-0.909-10.183c0.014,0.314,0.081-1.403,0.107-1.665
	c0.086-0.81,0.198-1.619,0.349-2.419c0.146-0.798,0.347-1.578,0.546-2.368c0.007-0.024,0.016-0.05,0.023-0.07
	c0.237-0.623,0.471-1.241,0.738-1.854c0.184-0.414,0.383-0.821,0.594-1.224c0.041-0.083,0.356-0.646,0.521-0.958
	c0.148-0.222,0.4-0.605,0.451-0.681c0.331-0.457,0.675-0.906,1.029-1.344c0.69-0.834,1.426-1.65,2.224-2.39
	c0.083-0.064,0.192-0.144,0.328-0.248c0.545-0.406,1.067-0.843,1.624-1.229c1.965-1.384,2.21-1.539,4.441-2.419
	c1.049-0.415,2.129-0.775,3.223-1.056c-0.297,0.075-0.998,0.156,0.306-0.049c0.554-0.09,1.111-0.186,1.668-0.249
	c8.358-0.985,15.879,2.465,21.979,8.92c2.424,2.56,7.387,1.897,9.467-0.812c2.432-3.166,1.874-6.83-0.717-9.574
	C153.982,258.472,131.546,255.155,116.709,267.807z"/>
<path fill="#1BBAFF" d="M37.773,240.74c-4.79,4.79-5.22,13.52-0.13,18.16c5.11,4.66,13.03,5,18.16-0.131
	c4.79-4.789,5.22-13.52,0.13-18.16C50.833,235.939,42.903,235.609,37.773,240.74z"/>
</svg>
